# xmcd CD database file
#
# Track frame offsets:
#	151
#	19643
#	34060
#	44247
#	55050
#	69771
#	104434
#	131695
#	140704
#	156357
#	174078
#	199434
#
# Disc length: 2915 seconds
#
# Revision: 0
# Processed by: cddbd v1.4PL0 Copyright (c) Steve Scherf et al.
# Submitted via: CDex 1.50
#
DISCID=ab0b610c
DTITLE=Various Artist - The Cream Of Jazzy Vibes Vol 1 CD 2
DYEAR=1997
DGENRE=Jazz
TTITLE0=Homey - Weldon Irvine
TTITLE1=Summertime - One G Plus Three
TTITLE2=Gwee - Richard Fudoli
TTITLE3=Tijuana - George Semper
TTITLE4=Juggah Buggah - Weldon Irvine
TTITLE5=Hasta Simpre Comandante - Nicos Jaritz Unidad
TTITLE6=Spontaneous Interaction - Weldon Irvine
TTITLE7=Syncopation - George Semper
TTITLE8=Brazil - John Gibbs
TTITLE9=Ron Con-Con - El Chicano
TTITLE10=Cho Cho San - Hummingbird 4
TTITLE11="St. Lucia" - Myles Kayne
EXTD=YEAR: 1997
EXTT0=
EXTT1=
EXTT2=
EXTT3=
EXTT4=
EXTT5=
EXTT6=
EXTT7=
EXTT8=
EXTT9=
EXTT10=
EXTT11=
PLAYORDER=
